# xmcd
#
# Track frame offsets:
#	150
#	14692
#	28067
#	42219
#	56867
#	70340
#	85079
#	96185
#	111018
#	125097
#	139990
#	157896
#	171028
#	186203
#
# Disc length: 2653 seconds
#
# Revision: 1
# Processed by: cddbd v1.5.2PL0 Copyright (c) Steve Scherf et al.
# Submitted via: EasyCDDAExtractor 12.0.4.1
#
DISCID=c30a5b0e
DTITLE=ชรินทร์ นันทนาคร - รอยรัก รอยเล็บ
DYEAR=1968
DGENRE=Country
TTITLE0=รอยรัก รอยเล็บ
TTITLE1=ปานทิพย์เทพี
TTITLE2=หยาดรุ้ง
TTITLE3=สายชล
TTITLE4=ดอกไม้เมืองเหนือ
TTITLE5=ล่องโขงคืนเพ็ญ
TTITLE6=เพลงรักเพลงรำ
TTITLE7=ขอใจให้พี่
TTITLE8=สมการรัก
TTITLE9=ราตรีที่สงขลา
TTITLE10=จำจากเจ้า
TTITLE11=ยิ้มทั้งน้ำตา
TTITLE12=ช้ำอกเหมือนตกตาล
TTITLE13=ลาก่อน.ความรัก
EXTD=
EXTT0=
EXTT1=
EXTT2=
EXTT3=
EXTT4=
EXTT5=
EXTT6=
EXTT7=
EXTT8=
EXTT9=
EXTT10=
EXTT11=
EXTT12=
EXTT13=
PLAYORDER=
